<?xml version="1.0" encoding="utf-8" standalone="no"?>
<!DOCTYPE svg PUBLIC "-//W3C//DTD SVG 1.1//EN"
  "http://www.w3.org/Graphics/SVG/1.1/DTD/svg11.dtd">
<svg xmlns:xlink="http://www.w3.org/1999/xlink" width="1728pt" height="432pt" viewBox="0 0 1728 432" xmlns="http://www.w3.org/2000/svg" version="1.1">
 <metadata>
  <rdf:RDF xmlns:dc="http://purl.org/dc/elements/1.1/" xmlns:cc="http://creativecommons.org/ns#" xmlns:rdf="http://www.w3.org/1999/02/22-rdf-syntax-ns#">
   <cc:Work>
    <dc:type rdf:resource="http://purl.org/dc/dcmitype/StillImage"/>
    <dc:date>2024-03-31T10:47:37.848210</dc:date>
    <dc:format>image/svg+xml</dc:format>
    <dc:creator>
     <cc:Agent>
      <dc:title>Matplotlib v3.7.1, https://matplotlib.org/</dc:title>
     </cc:Agent>
    </dc:creator>
   </cc:Work>
  </rdf:RDF>
 </metadata>
 <defs>
  <style type="text/css">*{stroke-linejoin: round; stroke-linecap: butt}</style>
 </defs>
 <g id="figure_1">
  <g id="patch_1">
   <path d="M 0 432 
L 1728 432 
L 1728 0 
L 0 0 
z
" style="fill: #ffffff"/>
  </g>
  <g id="axes_1">
   <g id="patch_2">
    <path d="M 216 384.48 
L 824.727273 384.48 
L 824.727273 51.84 
L 216 51.84 
z
" style="fill: #eaeaf2"/>
   </g>
   <g id="matplotlib.axis_1">
    <g id="xtick_1">
     <g id="text_1">
      <!-- Monday -->
      <g style="fill: #262626" transform="translate(195.760831 439.451132) rotate(-30) scale(0.2 -0.2)">
       <defs>
        <path id="ArialMT-4d" d="M 475 0 
L 475 4581 
L 1388 4581 
L 2472 1338 
Q 2622 884 2691 659 
Q 2769 909 2934 1394 
L 4031 4581 
L 4847 4581 
L 4847 0 
L 4263 0 
L 4263 3834 
L 2931 0 
L 2384 0 
L 1059 3900 
L 1059 0 
L 475 0 
z
" transform="scale(0.015625)"/>
        <path id="ArialMT-6f" d="M 213 1659 
Q 213 2581 725 3025 
Q 1153 3394 1769 3394 
Q 2453 3394 2887 2945 
Q 3322 2497 3322 1706 
Q 3322 1066 3130 698 
Q 2938 331 2570 128 
Q 2203 -75 1769 -75 
Q 1072 -75 642 372 
Q 213 819 213 1659 
z
M 791 1659 
Q 791 1022 1069 705 
Q 1347 388 1769 388 
Q 2188 388 2466 706 
Q 2744 1025 2744 1678 
Q 2744 2294 2464 2611 
Q 2184 2928 1769 2928 
Q 1347 2928 1069 2612 
Q 791 2297 791 1659 
z
" transform="scale(0.015625)"/>
        <path id="ArialMT-6e" d="M 422 0 
L 422 3319 
L 928 3319 
L 928 2847 
Q 1294 3394 1984 3394 
Q 2284 3394 2536 3286 
Q 2788 3178 2913 3003 
Q 3038 2828 3088 2588 
Q 3119 2431 3119 2041 
L 3119 0 
L 2556 0 
L 2556 2019 
Q 2556 2363 2490 2533 
Q 2425 2703 2258 2804 
Q 2091 2906 1866 2906 
Q 1506 2906 1245 2678 
Q 984 2450 984 1813 
L 984 0 
L 422 0 
z
" transform="scale(0.015625)"/>
        <path id="ArialMT-64" d="M 2575 0 
L 2575 419 
Q 2259 -75 1647 -75 
Q 1250 -75 917 144 
Q 584 363 401 755 
Q 219 1147 219 1656 
Q 219 2153 384 2558 
Q 550 2963 881 3178 
Q 1213 3394 1622 3394 
Q 1922 3394 2156 3267 
Q 2391 3141 2538 2938 
L 2538 4581 
L 3097 4581 
L 3097 0 
L 2575 0 
z
M 797 1656 
Q 797 1019 1065 703 
Q 1334 388 1700 388 
Q 2069 388 2326 689 
Q 2584 991 2584 1609 
Q 2584 2291 2321 2609 
Q 2059 2928 1675 2928 
Q 1300 2928 1048 2622 
Q 797 2316 797 1656 
z
" transform="scale(0.015625)"/>
        <path id="ArialMT-61" d="M 2588 409 
Q 2275 144 1986 34 
Q 1697 -75 1366 -75 
Q 819 -75 525 192 
Q 231 459 231 875 
Q 231 1119 342 1320 
Q 453 1522 633 1644 
Q 813 1766 1038 1828 
Q 1203 1872 1538 1913 
Q 2219 1994 2541 2106 
Q 2544 2222 2544 2253 
Q 2544 2597 2384 2738 
Q 2169 2928 1744 2928 
Q 1347 2928 1158 2789 
Q 969 2650 878 2297 
L 328 2372 
Q 403 2725 575 2942 
Q 747 3159 1072 3276 
Q 1397 3394 1825 3394 
Q 2250 3394 2515 3294 
Q 2781 3194 2906 3042 
Q 3031 2891 3081 2659 
Q 3109 2516 3109 2141 
L 3109 1391 
Q 3109 606 3145 398 
Q 3181 191 3288 0 
L 2700 0 
Q 2613 175 2588 409 
z
M 2541 1666 
Q 2234 1541 1622 1453 
Q 1275 1403 1131 1340 
Q 988 1278 909 1158 
Q 831 1038 831 891 
Q 831 666 1001 516 
Q 1172 366 1500 366 
Q 1825 366 2078 508 
Q 2331 650 2450 897 
Q 2541 1088 2541 1459 
L 2541 1666 
z
" transform="scale(0.015625)"/>
        <path id="ArialMT-79" d="M 397 -1278 
L 334 -750 
Q 519 -800 656 -800 
Q 844 -800 956 -737 
Q 1069 -675 1141 -563 
Q 1194 -478 1313 -144 
Q 1328 -97 1363 -6 
L 103 3319 
L 709 3319 
L 1400 1397 
Q 1534 1031 1641 628 
Q 1738 1016 1872 1384 
L 2581 3319 
L 3144 3319 
L 1881 -56 
Q 1678 -603 1566 -809 
Q 1416 -1088 1222 -1217 
Q 1028 -1347 759 -1347 
Q 597 -1347 397 -1278 
z
" transform="scale(0.015625)"/>
       </defs>
       <use xlink:href="#ArialMT-4d"/>
       <use xlink:href="#ArialMT-6f" x="83.300781"/>
       <use xlink:href="#ArialMT-6e" x="138.916016"/>
       <use xlink:href="#ArialMT-64" x="194.53125"/>
       <use xlink:href="#ArialMT-61" x="250.146484"/>
       <use xlink:href="#ArialMT-79" x="305.761719"/>
      </g>
     </g>
    </g>
    <g id="xtick_2">
     <g id="text_2">
      <!-- Tuesday -->
      <g style="fill: #262626" transform="translate(278.559535 441.854257) rotate(-30) scale(0.2 -0.2)">
       <defs>
        <path id="ArialMT-54" d="M 1659 0 
L 1659 4041 
L 150 4041 
L 150 4581 
L 3781 4581 
L 3781 4041 
L 2266 4041 
L 2266 0 
L 1659 0 
z
" transform="scale(0.015625)"/>
        <path id="ArialMT-75" d="M 2597 0 
L 2597 488 
Q 2209 -75 1544 -75 
Q 1250 -75 995 37 
Q 741 150 617 320 
Q 494 491 444 738 
Q 409 903 409 1263 
L 409 3319 
L 972 3319 
L 972 1478 
Q 972 1038 1006 884 
Q 1059 663 1231 536 
Q 1403 409 1656 409 
Q 1909 409 2131 539 
Q 2353 669 2445 892 
Q 2538 1116 2538 1541 
L 2538 3319 
L 3100 3319 
L 3100 0 
L 2597 0 
z
" transform="scale(0.015625)"/>
        <path id="ArialMT-65" d="M 2694 1069 
L 3275 997 
Q 3138 488 2766 206 
Q 2394 -75 1816 -75 
Q 1088 -75 661 373 
Q 234 822 234 1631 
Q 234 2469 665 2931 
Q 1097 3394 1784 3394 
Q 2450 3394 2872 2941 
Q 3294 2488 3294 1666 
Q 3294 1616 3291 1516 
L 816 1516 
Q 847 969 1125 678 
Q 1403 388 1819 388 
Q 2128 388 2347 550 
Q 2566 713 2694 1069 
z
M 847 1978 
L 2700 1978 
Q 2663 2397 2488 2606 
Q 2219 2931 1791 2931 
Q 1403 2931 1139 2672 
Q 875 2413 847 1978 
z
" transform="scale(0.015625)"/>
        <path id="ArialMT-73" d="M 197 991 
L 753 1078 
Q 800 744 1014 566 
Q 1228 388 1613 388 
Q 2000 388 2187 545 
Q 2375 703 2375 916 
Q 2375 1106 2209 1216 
Q 2094 1291 1634 1406 
Q 1016 1563 777 1677 
Q 538 1791 414 1992 
Q 291 2194 291 2438 
Q 291 2659 392 2848 
Q 494 3038 669 3163 
Q 800 3259 1026 3326 
Q 1253 3394 1513 3394 
Q 1903 3394 2198 3281 
Q 2494 3169 2634 2976 
Q 2775 2784 2828 2463 
L 2278 2388 
Q 2241 2644 2061 2787 
Q 1881 2931 1553 2931 
Q 1166 2931 1000 2803 
Q 834 2675 834 2503 
Q 834 2394 903 2306 
Q 972 2216 1119 2156 
Q 1203 2125 1616 2013 
Q 2213 1853 2448 1751 
Q 2684 1650 2818 1456 
Q 2953 1263 2953 975 
Q 2953 694 2789 445 
Q 2625 197 2315 61 
Q 2006 -75 1616 -75 
Q 969 -75 630 194 
Q 291 463 197 991 
z
" transform="scale(0.015625)"/>
       </defs>
       <use xlink:href="#ArialMT-54"/>
       <use xlink:href="#ArialMT-75" x="57.333984"/>
       <use xlink:href="#ArialMT-65" x="112.949219"/>
       <use xlink:href="#ArialMT-73" x="168.564453"/>
       <use xlink:href="#ArialMT-64" x="218.564453"/>
       <use xlink:href="#ArialMT-61" x="274.179688"/>
       <use xlink:href="#ArialMT-79" x="329.794922"/>
      </g>
     </g>
    </g>
    <g id="xtick_3">
     <g id="text_3">
      <!-- Wednesday -->
      <g style="fill: #262626" transform="translate(340.140617 456.507382) rotate(-30) scale(0.2 -0.2)">
       <defs>
        <path id="ArialMT-57" d="M 1294 0 
L 78 4581 
L 700 4581 
L 1397 1578 
Q 1509 1106 1591 641 
Q 1766 1375 1797 1488 
L 2669 4581 
L 3400 4581 
L 4056 2263 
Q 4303 1400 4413 641 
Q 4500 1075 4641 1638 
L 5359 4581 
L 5969 4581 
L 4713 0 
L 4128 0 
L 3163 3491 
Q 3041 3928 3019 4028 
Q 2947 3713 2884 3491 
L 1913 0 
L 1294 0 
z
" transform="scale(0.015625)"/>
       </defs>
       <use xlink:href="#ArialMT-57"/>
       <use xlink:href="#ArialMT-65" x="92.634766"/>
       <use xlink:href="#ArialMT-64" x="148.25"/>
       <use xlink:href="#ArialMT-6e" x="203.865234"/>
       <use xlink:href="#ArialMT-65" x="259.480469"/>
       <use xlink:href="#ArialMT-73" x="315.095703"/>
       <use xlink:href="#ArialMT-64" x="365.095703"/>
       <use xlink:href="#ArialMT-61" x="420.710938"/>
       <use xlink:href="#ArialMT-79" x="476.326172"/>
      </g>
     </g>
    </g>
    <g id="xtick_4">
     <g id="text_4">
      <!-- Thursday -->
      <g style="fill: #262626" transform="translate(446.064906 445.558945) rotate(-30) scale(0.2 -0.2)">
       <defs>
        <path id="ArialMT-68" d="M 422 0 
L 422 4581 
L 984 4581 
L 984 2938 
Q 1378 3394 1978 3394 
Q 2347 3394 2619 3248 
Q 2891 3103 3008 2847 
Q 3125 2591 3125 2103 
L 3125 0 
L 2563 0 
L 2563 2103 
Q 2563 2525 2380 2717 
Q 2197 2909 1863 2909 
Q 1613 2909 1392 2779 
Q 1172 2650 1078 2428 
Q 984 2206 984 1816 
L 984 0 
L 422 0 
z
" transform="scale(0.015625)"/>
        <path id="ArialMT-72" d="M 416 0 
L 416 3319 
L 922 3319 
L 922 2816 
Q 1116 3169 1280 3281 
Q 1444 3394 1641 3394 
Q 1925 3394 2219 3213 
L 2025 2691 
Q 1819 2813 1613 2813 
Q 1428 2813 1281 2702 
Q 1134 2591 1072 2394 
Q 978 2094 978 1738 
L 978 0 
L 416 0 
z
" transform="scale(0.015625)"/>
       </defs>
       <use xlink:href="#ArialMT-54"/>
       <use xlink:href="#ArialMT-68" x="61.083984"/>
       <use xlink:href="#ArialMT-75" x="116.699219"/>
       <use xlink:href="#ArialMT-72" x="172.314453"/>
       <use xlink:href="#ArialMT-73" x="205.615234"/>
       <use xlink:href="#ArialMT-64" x="255.615234"/>
       <use xlink:href="#ArialMT-61" x="311.230469"/>
       <use xlink:href="#ArialMT-79" x="366.845703"/>
      </g>
     </g>
    </g>
    <g id="xtick_5">
     <g id="text_5">
      <!-- Friday -->
      <g style="fill: #262626" transform="translate(557.101451 431.658945) rotate(-30) scale(0.2 -0.2)">
       <defs>
        <path id="ArialMT-46" d="M 525 0 
L 525 4581 
L 3616 4581 
L 3616 4041 
L 1131 4041 
L 1131 2622 
L 3281 2622 
L 3281 2081 
L 1131 2081 
L 1131 0 
L 525 0 
z
" transform="scale(0.015625)"/>
        <path id="ArialMT-69" d="M 425 3934 
L 425 4581 
L 988 4581 
L 988 3934 
L 425 3934 
z
M 425 0 
L 425 3319 
L 988 3319 
L 988 0 
L 425 0 
z
" transform="scale(0.015625)"/>
       </defs>
       <use xlink:href="#ArialMT-46"/>
       <use xlink:href="#ArialMT-72" x="61.083984"/>
       <use xlink:href="#ArialMT-69" x="94.384766"/>
       <use xlink:href="#ArialMT-64" x="116.601562"/>
       <use xlink:href="#ArialMT-61" x="172.216797"/>
       <use xlink:href="#ArialMT-79" x="227.832031"/>
      </g>
     </g>
    </g>
    <g id="xtick_6">
     <g id="text_6">
      <!-- Saturday -->
      <g style="fill: #262626" transform="translate(622.861106 444.110664) rotate(-30) scale(0.2 -0.2)">
       <defs>
        <path id="ArialMT-53" d="M 288 1472 
L 859 1522 
Q 900 1178 1048 958 
Q 1197 738 1509 602 
Q 1822 466 2213 466 
Q 2559 466 2825 569 
Q 3091 672 3220 851 
Q 3350 1031 3350 1244 
Q 3350 1459 3225 1620 
Q 3100 1781 2813 1891 
Q 2628 1963 1997 2114 
Q 1366 2266 1113 2400 
Q 784 2572 623 2826 
Q 463 3081 463 3397 
Q 463 3744 659 4045 
Q 856 4347 1234 4503 
Q 1613 4659 2075 4659 
Q 2584 4659 2973 4495 
Q 3363 4331 3572 4012 
Q 3781 3694 3797 3291 
L 3216 3247 
Q 3169 3681 2898 3903 
Q 2628 4125 2100 4125 
Q 1550 4125 1298 3923 
Q 1047 3722 1047 3438 
Q 1047 3191 1225 3031 
Q 1400 2872 2139 2705 
Q 2878 2538 3153 2413 
Q 3553 2228 3743 1945 
Q 3934 1663 3934 1294 
Q 3934 928 3725 604 
Q 3516 281 3123 101 
Q 2731 -78 2241 -78 
Q 1619 -78 1198 103 
Q 778 284 539 648 
Q 300 1013 288 1472 
z
" transform="scale(0.015625)"/>
        <path id="ArialMT-74" d="M 1650 503 
L 1731 6 
Q 1494 -44 1306 -44 
Q 1000 -44 831 53 
Q 663 150 594 308 
Q 525 466 525 972 
L 525 2881 
L 113 2881 
L 113 3319 
L 525 3319 
L 525 4141 
L 1084 4478 
L 1084 3319 
L 1650 3319 
L 1650 2881 
L 1084 2881 
L 1084 941 
Q 1084 700 1114 631 
Q 1144 563 1211 522 
Q 1278 481 1403 481 
Q 1497 481 1650 503 
z
" transform="scale(0.015625)"/>
       </defs>
       <use xlink:href="#ArialMT-53"/>
       <use xlink:href="#ArialMT-61" x="66.699219"/>
       <use xlink:href="#ArialMT-74" x="122.314453"/>
       <use xlink:href="#ArialMT-75" x="150.097656"/>
       <use xlink:href="#ArialMT-72" x="205.712891"/>
       <use xlink:href="#ArialMT-64" x="239.013672"/>
       <use xlink:href="#ArialMT-61" x="294.628906"/>
       <use xlink:href="#ArialMT-79" x="350.244141"/>
      </g>
     </g>
    </g>
    <g id="xtick_7">
     <g id="text_7">
      <!-- Sunday -->
      <g style="fill: #262626" transform="translate(720.401186 438.002851) rotate(-30) scale(0.2 -0.2)">
       <use xlink:href="#ArialMT-53"/>
       <use xlink:href="#ArialMT-75" x="66.699219"/>
       <use xlink:href="#ArialMT-6e" x="122.314453"/>
       <use xlink:href="#ArialMT-64" x="177.929688"/>
       <use xlink:href="#ArialMT-61" x="233.544922"/>
       <use xlink:href="#ArialMT-79" x="289.160156"/>
      </g>
     </g>
    </g>
    <g id="text_8">
     <!-- day -->
     <g style="fill: #262626" transform="translate(504.241761 478.468433) scale(0.2 -0.2)">
      <use xlink:href="#ArialMT-64"/>
      <use xlink:href="#ArialMT-61" x="55.615234"/>
      <use xlink:href="#ArialMT-79" x="111.230469"/>
     </g>
    </g>
   </g>
   <g id="matplotlib.axis_2">
    <g id="ytick_1">
     <g id="line2d_1">
      <path d="M 216 384.48 
L 824.727273 384.48 
" clip-path="url(#p4df3c812d3)" style="fill: none; stroke: #ffffff; stroke-width: 0.8; stroke-linecap: round"/>
     </g>
     <g id="text_9">
      <!-- 0 -->
      <g style="fill: #262626" transform="translate(197.878125 391.637812) scale(0.2 -0.2)">
       <defs>
        <path id="ArialMT-30" d="M 266 2259 
Q 266 3072 433 3567 
Q 600 4063 929 4331 
Q 1259 4600 1759 4600 
Q 2128 4600 2406 4451 
Q 2684 4303 2865 4023 
Q 3047 3744 3150 3342 
Q 3253 2941 3253 2259 
Q 3253 1453 3087 958 
Q 2922 463 2592 192 
Q 2263 -78 1759 -78 
Q 1097 -78 719 397 
Q 266 969 266 2259 
z
M 844 2259 
Q 844 1131 1108 757 
Q 1372 384 1759 384 
Q 2147 384 2411 759 
Q 2675 1134 2675 2259 
Q 2675 3391 2411 3762 
Q 2147 4134 1753 4134 
Q 1366 4134 1134 3806 
Q 844 3388 844 2259 
z
" transform="scale(0.015625)"/>
       </defs>
       <use xlink:href="#ArialMT-30"/>
      </g>
     </g>
    </g>
    <g id="ytick_2">
     <g id="line2d_2">
      <path d="M 216 341.035129 
L 824.727273 341.035129 
" clip-path="url(#p4df3c812d3)" style="fill: none; stroke: #ffffff; stroke-width: 0.8; stroke-linecap: round"/>
     </g>
     <g id="text_10">
      <!-- 250 -->
      <g style="fill: #262626" transform="translate(175.634375 348.192941) scale(0.2 -0.2)">
       <defs>
        <path id="ArialMT-32" d="M 3222 541 
L 3222 0 
L 194 0 
Q 188 203 259 391 
Q 375 700 629 1000 
Q 884 1300 1366 1694 
Q 2113 2306 2375 2664 
Q 2638 3022 2638 3341 
Q 2638 3675 2398 3904 
Q 2159 4134 1775 4134 
Q 1369 4134 1125 3890 
Q 881 3647 878 3216 
L 300 3275 
Q 359 3922 746 4261 
Q 1134 4600 1788 4600 
Q 2447 4600 2831 4234 
Q 3216 3869 3216 3328 
Q 3216 3053 3103 2787 
Q 2991 2522 2730 2228 
Q 2469 1934 1863 1422 
Q 1356 997 1212 845 
Q 1069 694 975 541 
L 3222 541 
z
" transform="scale(0.015625)"/>
        <path id="ArialMT-35" d="M 266 1200 
L 856 1250 
Q 922 819 1161 601 
Q 1400 384 1738 384 
Q 2144 384 2425 690 
Q 2706 997 2706 1503 
Q 2706 1984 2436 2262 
Q 2166 2541 1728 2541 
Q 1456 2541 1237 2417 
Q 1019 2294 894 2097 
L 366 2166 
L 809 4519 
L 3088 4519 
L 3088 3981 
L 1259 3981 
L 1013 2750 
Q 1425 3038 1878 3038 
Q 2478 3038 2890 2622 
Q 3303 2206 3303 1553 
Q 3303 931 2941 478 
Q 2500 -78 1738 -78 
Q 1113 -78 717 272 
Q 322 622 266 1200 
z
" transform="scale(0.015625)"/>
       </defs>
       <use xlink:href="#ArialMT-32"/>
       <use xlink:href="#ArialMT-35" x="55.615234"/>
       <use xlink:href="#ArialMT-30" x="111.230469"/>
      </g>
     </g>
    </g>
    <g id="ytick_3">
     <g id="line2d_3">
      <path d="M 216 297.590258 
L 824.727273 297.590258 
" clip-path="url(#p4df3c812d3)" style="fill: none; stroke: #ffffff; stroke-width: 0.8; stroke-linecap: round"/>
     </g>
     <g id="text_11">
      <!-- 500 -->
      <g style="fill: #262626" transform="translate(175.634375 304.74807) scale(0.2 -0.2)">
       <use xlink:href="#ArialMT-35"/>
       <use xlink:href="#ArialMT-30" x="55.615234"/>
       <use xlink:href="#ArialMT-30" x="111.230469"/>
      </g>
     </g>
    </g>
    <g id="ytick_4">
     <g id="line2d_4">
      <path d="M 216 254.145387 
L 824.727273 254.145387 
" clip-path="url(#p4df3c812d3)" style="fill: none; stroke: #ffffff; stroke-width: 0.8; stroke-linecap: round"/>
     </g>
     <g id="text_12">
      <!-- 750 -->
      <g style="fill: #262626" transform="translate(175.634375 261.303199) scale(0.2 -0.2)">
       <defs>
        <path id="ArialMT-37" d="M 303 3981 
L 303 4522 
L 3269 4522 
L 3269 4084 
Q 2831 3619 2401 2847 
Q 1972 2075 1738 1259 
Q 1569 684 1522 0 
L 944 0 
Q 953 541 1156 1306 
Q 1359 2072 1739 2783 
Q 2119 3494 2547 3981 
L 303 3981 
z
" transform="scale(0.015625)"/>
       </defs>
       <use xlink:href="#ArialMT-37"/>
       <use xlink:href="#ArialMT-35" x="55.615234"/>
       <use xlink:href="#ArialMT-30" x="111.230469"/>
      </g>
     </g>
    </g>
    <g id="ytick_5">
     <g id="line2d_5">
      <path d="M 216 210.700516 
L 824.727273 210.700516 
" clip-path="url(#p4df3c812d3)" style="fill: none; stroke: #ffffff; stroke-width: 0.8; stroke-linecap: round"/>
     </g>
     <g id="text_13">
      <!-- 1000 -->
      <g style="fill: #262626" transform="translate(164.5125 217.858328) scale(0.2 -0.2)">
       <defs>
        <path id="ArialMT-31" d="M 2384 0 
L 1822 0 
L 1822 3584 
Q 1619 3391 1289 3197 
Q 959 3003 697 2906 
L 697 3450 
Q 1169 3672 1522 3987 
Q 1875 4303 2022 4600 
L 2384 4600 
L 2384 0 
z
" transform="scale(0.015625)"/>
       </defs>
       <use xlink:href="#ArialMT-31"/>
       <use xlink:href="#ArialMT-30" x="55.615234"/>
       <use xlink:href="#ArialMT-30" x="111.230469"/>
       <use xlink:href="#ArialMT-30" x="166.845703"/>
      </g>
     </g>
    </g>
    <g id="ytick_6">
     <g id="line2d_6">
      <path d="M 216 167.255645 
L 824.727273 167.255645 
" clip-path="url(#p4df3c812d3)" style="fill: none; stroke: #ffffff; stroke-width: 0.8; stroke-linecap: round"/>
     </g>
     <g id="text_14">
      <!-- 1250 -->
      <g style="fill: #262626" transform="translate(164.5125 174.413457) scale(0.2 -0.2)">
       <use xlink:href="#ArialMT-31"/>
       <use xlink:href="#ArialMT-32" x="55.615234"/>
       <use xlink:href="#ArialMT-35" x="111.230469"/>
       <use xlink:href="#ArialMT-30" x="166.845703"/>
      </g>
     </g>
    </g>
    <g id="ytick_7">
     <g id="line2d_7">
      <path d="M 216 123.810773 
L 824.727273 123.810773 
" clip-path="url(#p4df3c812d3)" style="fill: none; stroke: #ffffff; stroke-width: 0.8; stroke-linecap: round"/>
     </g>
     <g id="text_15">
      <!-- 1500 -->
      <g style="fill: #262626" transform="translate(164.5125 130.968586) scale(0.2 -0.2)">
       <use xlink:href="#ArialMT-31"/>
       <use xlink:href="#ArialMT-35" x="55.615234"/>
       <use xlink:href="#ArialMT-30" x="111.230469"/>
       <use xlink:href="#ArialMT-30" x="166.845703"/>
      </g>
     </g>
    </g>
    <g id="ytick_8">
     <g id="line2d_8">
      <path d="M 216 80.365902 
L 824.727273 80.365902 
" clip-path="url(#p4df3c812d3)" style="fill: none; stroke: #ffffff; stroke-width: 0.8; stroke-linecap: round"/>
     </g>
     <g id="text_16">
      <!-- 1750 -->
      <g style="fill: #262626" transform="translate(164.5125 87.523715) scale(0.2 -0.2)">
       <use xlink:href="#ArialMT-31"/>
       <use xlink:href="#ArialMT-37" x="55.615234"/>
       <use xlink:href="#ArialMT-35" x="111.230469"/>
       <use xlink:href="#ArialMT-30" x="166.845703"/>
      </g>
     </g>
    </g>
    <g id="text_17">
     <!-- message_count -->
     <g style="fill: #262626" transform="translate(156.303125 288.755312) rotate(-90) scale(0.2 -0.2)">
      <defs>
       <path id="ArialMT-6d" d="M 422 0 
L 422 3319 
L 925 3319 
L 925 2853 
Q 1081 3097 1340 3245 
Q 1600 3394 1931 3394 
Q 2300 3394 2536 3241 
Q 2772 3088 2869 2813 
Q 3263 3394 3894 3394 
Q 4388 3394 4653 3120 
Q 4919 2847 4919 2278 
L 4919 0 
L 4359 0 
L 4359 2091 
Q 4359 2428 4304 2576 
Q 4250 2725 4106 2815 
Q 3963 2906 3769 2906 
Q 3419 2906 3187 2673 
Q 2956 2441 2956 1928 
L 2956 0 
L 2394 0 
L 2394 2156 
Q 2394 2531 2256 2718 
Q 2119 2906 1806 2906 
Q 1569 2906 1367 2781 
Q 1166 2656 1075 2415 
Q 984 2175 984 1722 
L 984 0 
L 422 0 
z
" transform="scale(0.015625)"/>
       <path id="ArialMT-67" d="M 319 -275 
L 866 -356 
Q 900 -609 1056 -725 
Q 1266 -881 1628 -881 
Q 2019 -881 2231 -725 
Q 2444 -569 2519 -288 
Q 2563 -116 2559 434 
Q 2191 0 1641 0 
Q 956 0 581 494 
Q 206 988 206 1678 
Q 206 2153 378 2554 
Q 550 2956 876 3175 
Q 1203 3394 1644 3394 
Q 2231 3394 2613 2919 
L 2613 3319 
L 3131 3319 
L 3131 450 
Q 3131 -325 2973 -648 
Q 2816 -972 2473 -1159 
Q 2131 -1347 1631 -1347 
Q 1038 -1347 672 -1080 
Q 306 -813 319 -275 
z
M 784 1719 
Q 784 1066 1043 766 
Q 1303 466 1694 466 
Q 2081 466 2343 764 
Q 2606 1063 2606 1700 
Q 2606 2309 2336 2618 
Q 2066 2928 1684 2928 
Q 1309 2928 1046 2623 
Q 784 2319 784 1719 
z
" transform="scale(0.015625)"/>
       <path id="ArialMT-5f" d="M -97 -1272 
L -97 -866 
L 3631 -866 
L 3631 -1272 
L -97 -1272 
z
" transform="scale(0.015625)"/>
       <path id="ArialMT-63" d="M 2588 1216 
L 3141 1144 
Q 3050 572 2676 248 
Q 2303 -75 1759 -75 
Q 1078 -75 664 370 
Q 250 816 250 1647 
Q 250 2184 428 2587 
Q 606 2991 970 3192 
Q 1334 3394 1763 3394 
Q 2303 3394 2647 3120 
Q 2991 2847 3088 2344 
L 2541 2259 
Q 2463 2594 2264 2762 
Q 2066 2931 1784 2931 
Q 1359 2931 1093 2626 
Q 828 2322 828 1663 
Q 828 994 1084 691 
Q 1341 388 1753 388 
Q 2084 388 2306 591 
Q 2528 794 2588 1216 
z
" transform="scale(0.015625)"/>
      </defs>
      <use xlink:href="#ArialMT-6d"/>
      <use xlink:href="#ArialMT-65" x="83.300781"/>
      <use xlink:href="#ArialMT-73" x="138.916016"/>
      <use xlink:href="#ArialMT-73" x="188.916016"/>
      <use xlink:href="#ArialMT-61" x="238.916016"/>
      <use xlink:href="#ArialMT-67" x="294.53125"/>
      <use xlink:href="#ArialMT-65" x="350.146484"/>
      <use xlink:href="#ArialMT-5f" x="405.761719"/>
      <use xlink:href="#ArialMT-63" x="461.376953"/>
      <use xlink:href="#ArialMT-6f" x="511.376953"/>
      <use xlink:href="#ArialMT-75" x="566.992188"/>
      <use xlink:href="#ArialMT-6e" x="622.607422"/>
      <use xlink:href="#ArialMT-74" x="678.222656"/>
     </g>
    </g>
   </g>
   <g id="patch_3">
    <path d="M 224.696104 384.48 
L 294.264935 384.48 
L 294.264935 175.59706 
L 224.696104 175.59706 
z
" clip-path="url(#p4df3c812d3)" style="fill: #ece1d1; stroke: #ffffff; stroke-linejoin: miter"/>
   </g>
   <g id="patch_4">
    <path d="M 311.657143 384.48 
L 381.225974 384.48 
L 381.225974 129.545496 
L 311.657143 129.545496 
z
" clip-path="url(#p4df3c812d3)" style="fill: #f5ebb8; stroke: #ffffff; stroke-linejoin: miter"/>
   </g>
   <g id="patch_5">
    <path d="M 398.618182 384.48 
L 468.187013 384.48 
L 468.187013 144.142973 
L 398.618182 144.142973 
z
" clip-path="url(#p4df3c812d3)" style="fill: #e4f0ce; stroke: #ffffff; stroke-linejoin: miter"/>
   </g>
   <g id="patch_6">
    <path d="M 485.579221 384.48 
L 555.148052 384.48 
L 555.148052 88.185979 
L 485.579221 88.185979 
z
" clip-path="url(#p4df3c812d3)" style="fill: #efcfe3; stroke: #ffffff; stroke-linejoin: miter"/>
   </g>
   <g id="patch_7">
    <path d="M 572.54026 384.48 
L 642.109091 384.48 
L 642.109091 67.68 
L 572.54026 67.68 
z
" clip-path="url(#p4df3c812d3)" style="fill: #cfd6e4; stroke: #ffffff; stroke-linejoin: miter"/>
   </g>
   <g id="patch_8">
    <path d="M 659.501299 384.48 
L 729.07013 384.48 
L 729.07013 105.042589 
L 659.501299 105.042589 
z
" clip-path="url(#p4df3c812d3)" style="fill: #f3cfb6; stroke: #ffffff; stroke-linejoin: miter"/>
   </g>
   <g id="patch_9">
    <path d="M 746.462338 384.48 
L 816.031169 384.48 
L 816.031169 67.853779 
L 746.462338 67.853779 
z
" clip-path="url(#p4df3c812d3)" style="fill: #b9dccc; stroke: #ffffff; stroke-linejoin: miter"/>
   </g>
   <g id="line2d_9">
    <path clip-path="url(#p4df3c812d3)" style="fill: none; stroke: #424242; stroke-width: 2.7; stroke-linecap: round"/>
   </g>
   <g id="line2d_10">
    <path clip-path="url(#p4df3c812d3)" style="fill: none; stroke: #424242; stroke-width: 2.7; stroke-linecap: round"/>
   </g>
   <g id="line2d_11">
    <path clip-path="url(#p4df3c812d3)" style="fill: none; stroke: #424242; stroke-width: 2.7; stroke-linecap: round"/>
   </g>
   <g id="line2d_12">
    <path clip-path="url(#p4df3c812d3)" style="fill: none; stroke: #424242; stroke-width: 2.7; stroke-linecap: round"/>
   </g>
   <g id="line2d_13">
    <path clip-path="url(#p4df3c812d3)" style="fill: none; stroke: #424242; stroke-width: 2.7; stroke-linecap: round"/>
   </g>
   <g id="line2d_14">
    <path clip-path="url(#p4df3c812d3)" style="fill: none; stroke: #424242; stroke-width: 2.7; stroke-linecap: round"/>
   </g>
   <g id="line2d_15">
    <path clip-path="url(#p4df3c812d3)" style="fill: none; stroke: #424242; stroke-width: 2.7; stroke-linecap: round"/>
   </g>
   <g id="patch_10">
    <path d="M 216 384.48 
L 216 51.84 
" style="fill: none; stroke: #ffffff; stroke-width: 0.8; stroke-linejoin: miter; stroke-linecap: square"/>
   </g>
   <g id="patch_11">
    <path d="M 824.727273 384.48 
L 824.727273 51.84 
" style="fill: none; stroke: #ffffff; stroke-width: 0.8; stroke-linejoin: miter; stroke-linecap: square"/>
   </g>
   <g id="patch_12">
    <path d="M 216 384.48 
L 824.727273 384.48 
" style="fill: none; stroke: #ffffff; stroke-width: 0.8; stroke-linejoin: miter; stroke-linecap: square"/>
   </g>
   <g id="patch_13">
    <path d="M 216 51.84 
L 824.727273 51.84 
" style="fill: none; stroke: #ffffff; stroke-width: 0.8; stroke-linejoin: miter; stroke-linecap: square"/>
   </g>
   <g id="text_18">
    <!-- Total messages sent grouped by day -->
    <g style="fill: #262626" transform="translate(324.932386 45.84) scale(0.24 -0.24)">
     <defs>
      <path id="ArialMT-6c" d="M 409 0 
L 409 4581 
L 972 4581 
L 972 0 
L 409 0 
z
" transform="scale(0.015625)"/>
      <path id="ArialMT-20" transform="scale(0.015625)"/>
      <path id="ArialMT-70" d="M 422 -1272 
L 422 3319 
L 934 3319 
L 934 2888 
Q 1116 3141 1344 3267 
Q 1572 3394 1897 3394 
Q 2322 3394 2647 3175 
Q 2972 2956 3137 2557 
Q 3303 2159 3303 1684 
Q 3303 1175 3120 767 
Q 2938 359 2589 142 
Q 2241 -75 1856 -75 
Q 1575 -75 1351 44 
Q 1128 163 984 344 
L 984 -1272 
L 422 -1272 
z
M 931 1641 
Q 931 1000 1190 694 
Q 1450 388 1819 388 
Q 2194 388 2461 705 
Q 2728 1022 2728 1688 
Q 2728 2322 2467 2637 
Q 2206 2953 1844 2953 
Q 1484 2953 1207 2617 
Q 931 2281 931 1641 
z
" transform="scale(0.015625)"/>
      <path id="ArialMT-62" d="M 941 0 
L 419 0 
L 419 4581 
L 981 4581 
L 981 2947 
Q 1338 3394 1891 3394 
Q 2197 3394 2470 3270 
Q 2744 3147 2920 2923 
Q 3097 2700 3197 2384 
Q 3297 2069 3297 1709 
Q 3297 856 2875 390 
Q 2453 -75 1863 -75 
Q 1275 -75 941 416 
L 941 0 
z
M 934 1684 
Q 934 1088 1097 822 
Q 1363 388 1816 388 
Q 2184 388 2453 708 
Q 2722 1028 2722 1663 
Q 2722 2313 2464 2622 
Q 2206 2931 1841 2931 
Q 1472 2931 1203 2611 
Q 934 2291 934 1684 
z
" transform="scale(0.015625)"/>
     </defs>
     <use xlink:href="#ArialMT-54"/>
     <use xlink:href="#ArialMT-6f" x="49.958984"/>
     <use xlink:href="#ArialMT-74" x="105.574219"/>
     <use xlink:href="#ArialMT-61" x="133.357422"/>
     <use xlink:href="#ArialMT-6c" x="188.972656"/>
     <use xlink:href="#ArialMT-20" x="211.189453"/>
     <use xlink:href="#ArialMT-6d" x="238.972656"/>
     <use xlink:href="#ArialMT-65" x="322.273438"/>
     <use xlink:href="#ArialMT-73" x="377.888672"/>
     <use xlink:href="#ArialMT-73" x="427.888672"/>
     <use xlink:href="#ArialMT-61" x="477.888672"/>
     <use xlink:href="#ArialMT-67" x="533.503906"/>
     <use xlink:href="#ArialMT-65" x="589.119141"/>
     <use xlink:href="#ArialMT-73" x="644.734375"/>
     <use xlink:href="#ArialMT-20" x="694.734375"/>
     <use xlink:href="#ArialMT-73" x="722.517578"/>
     <use xlink:href="#ArialMT-65" x="772.517578"/>
     <use xlink:href="#ArialMT-6e" x="828.132812"/>
     <use xlink:href="#ArialMT-74" x="883.748047"/>
     <use xlink:href="#ArialMT-20" x="911.53125"/>
     <use xlink:href="#ArialMT-67" x="939.314453"/>
     <use xlink:href="#ArialMT-72" x="994.929688"/>
     <use xlink:href="#ArialMT-6f" x="1028.230469"/>
     <use xlink:href="#ArialMT-75" x="1083.845703"/>
     <use xlink:href="#ArialMT-70" x="1139.460938"/>
     <use xlink:href="#ArialMT-65" x="1195.076172"/>
     <use xlink:href="#ArialMT-64" x="1250.691406"/>
     <use xlink:href="#ArialMT-20" x="1306.306641"/>
     <use xlink:href="#ArialMT-62" x="1334.089844"/>
     <use xlink:href="#ArialMT-79" x="1389.705078"/>
     <use xlink:href="#ArialMT-20" x="1439.705078"/>
     <use xlink:href="#ArialMT-64" x="1467.488281"/>
     <use xlink:href="#ArialMT-61" x="1523.103516"/>
     <use xlink:href="#ArialMT-79" x="1578.71875"/>
    </g>
   </g>
  </g>
  <g id="axes_2">
   <g id="patch_14">
    <path d="M 946.472727 384.48 
L 1555.2 384.48 
L 1555.2 51.84 
L 946.472727 51.84 
z
" style="fill: #eaeaf2"/>
   </g>
   <g id="matplotlib.axis_3">
    <g id="xtick_8">
     <g id="line2d_16">
      <path d="M 946.472727 384.48 
L 946.472727 51.84 
" clip-path="url(#pf9bf8ff117)" style="fill: none; stroke: #ffffff; stroke-width: 0.8; stroke-linecap: round"/>
     </g>
     <g id="text_19">
      <!-- 0 -->
      <g style="fill: #262626" transform="translate(940.91179 405.795625) scale(0.2 -0.2)">
       <use xlink:href="#ArialMT-30"/>
      </g>
     </g>
    </g>
    <g id="xtick_9">
     <g id="line2d_17">
      <path d="M 1017.415001 384.48 
L 1017.415001 51.84 
" clip-path="url(#pf9bf8ff117)" style="fill: none; stroke: #ffffff; stroke-width: 0.8; stroke-linecap: round"/>
     </g>
     <g id="text_20">
      <!-- 250 -->
      <g style="fill: #262626" transform="translate(1000.732188 405.795625) scale(0.2 -0.2)">
       <use xlink:href="#ArialMT-32"/>
       <use xlink:href="#ArialMT-35" x="55.615234"/>
       <use xlink:href="#ArialMT-30" x="111.230469"/>
      </g>
     </g>
    </g>
    <g id="xtick_10">
     <g id="line2d_18">
      <path d="M 1088.357274 384.48 
L 1088.357274 51.84 
" clip-path="url(#pf9bf8ff117)" style="fill: none; stroke: #ffffff; stroke-width: 0.8; stroke-linecap: round"/>
     </g>
     <g id="text_21">
      <!-- 500 -->
      <g style="fill: #262626" transform="translate(1071.674462 405.795625) scale(0.2 -0.2)">
       <use xlink:href="#ArialMT-35"/>
       <use xlink:href="#ArialMT-30" x="55.615234"/>
       <use xlink:href="#ArialMT-30" x="111.230469"/>
      </g>
     </g>
    </g>
    <g id="xtick_11">
     <g id="line2d_19">
      <path d="M 1159.299548 384.48 
L 1159.299548 51.84 
" clip-path="url(#pf9bf8ff117)" style="fill: none; stroke: #ffffff; stroke-width: 0.8; stroke-linecap: round"/>
     </g>
     <g id="text_22">
      <!-- 750 -->
      <g style="fill: #262626" transform="translate(1142.616736 405.795625) scale(0.2 -0.2)">
       <use xlink:href="#ArialMT-37"/>
       <use xlink:href="#ArialMT-35" x="55.615234"/>
       <use xlink:href="#ArialMT-30" x="111.230469"/>
      </g>
     </g>
    </g>
    <g id="xtick_12">
     <g id="line2d_20">
      <path d="M 1230.241822 384.48 
L 1230.241822 51.84 
" clip-path="url(#pf9bf8ff117)" style="fill: none; stroke: #ffffff; stroke-width: 0.8; stroke-linecap: round"/>
     </g>
     <g id="text_23">
      <!-- 1000 -->
      <g style="fill: #262626" transform="translate(1207.998072 405.795625) scale(0.2 -0.2)">
       <use xlink:href="#ArialMT-31"/>
       <use xlink:href="#ArialMT-30" x="55.615234"/>
       <use xlink:href="#ArialMT-30" x="111.230469"/>
       <use xlink:href="#ArialMT-30" x="166.845703"/>
      </g>
     </g>
    </g>
    <g id="xtick_13">
     <g id="line2d_21">
      <path d="M 1301.184095 384.48 
L 1301.184095 51.84 
" clip-path="url(#pf9bf8ff117)" style="fill: none; stroke: #ffffff; stroke-width: 0.8; stroke-linecap: round"/>
     </g>
     <g id="text_24">
      <!-- 1250 -->
      <g style="fill: #262626" transform="translate(1278.940345 405.795625) scale(0.2 -0.2)">
       <use xlink:href="#ArialMT-31"/>
       <use xlink:href="#ArialMT-32" x="55.615234"/>
       <use xlink:href="#ArialMT-35" x="111.230469"/>
       <use xlink:href="#ArialMT-30" x="166.845703"/>
      </g>
     </g>
    </g>
    <g id="xtick_14">
     <g id="line2d_22">
      <path d="M 1372.126369 384.48 
L 1372.126369 51.84 
" clip-path="url(#pf9bf8ff117)" style="fill: none; stroke: #ffffff; stroke-width: 0.8; stroke-linecap: round"/>
     </g>
     <g id="text_25">
      <!-- 1500 -->
      <g style="fill: #262626" transform="translate(1349.882619 405.795625) scale(0.2 -0.2)">
       <use xlink:href="#ArialMT-31"/>
       <use xlink:href="#ArialMT-35" x="55.615234"/>
       <use xlink:href="#ArialMT-30" x="111.230469"/>
       <use xlink:href="#ArialMT-30" x="166.845703"/>
      </g>
     </g>
    </g>
    <g id="xtick_15">
     <g id="line2d_23">
      <path d="M 1443.068642 384.48 
L 1443.068642 51.84 
" clip-path="url(#pf9bf8ff117)" style="fill: none; stroke: #ffffff; stroke-width: 0.8; stroke-linecap: round"/>
     </g>
     <g id="text_26">
      <!-- 1750 -->
      <g style="fill: #262626" transform="translate(1420.824892 405.795625) scale(0.2 -0.2)">
       <use xlink:href="#ArialMT-31"/>
       <use xlink:href="#ArialMT-37" x="55.615234"/>
       <use xlink:href="#ArialMT-35" x="111.230469"/>
       <use xlink:href="#ArialMT-30" x="166.845703"/>
      </g>
     </g>
    </g>
    <g id="xtick_16">
     <g id="line2d_24">
      <path d="M 1514.010916 384.48 
L 1514.010916 51.84 
" clip-path="url(#pf9bf8ff117)" style="fill: none; stroke: #ffffff; stroke-width: 0.8; stroke-linecap: round"/>
     </g>
     <g id="text_27">
      <!-- 2000 -->
      <g style="fill: #262626" transform="translate(1491.767166 405.795625) scale(0.2 -0.2)">
       <use xlink:href="#ArialMT-32"/>
       <use xlink:href="#ArialMT-30" x="55.615234"/>
       <use xlink:href="#ArialMT-30" x="111.230469"/>
       <use xlink:href="#ArialMT-30" x="166.845703"/>
      </g>
     </g>
    </g>
    <g id="text_28">
     <!-- message_count -->
     <g style="fill: #262626" transform="translate(1180.241051 427.851875) scale(0.2 -0.2)">
      <use xlink:href="#ArialMT-6d"/>
      <use xlink:href="#ArialMT-65" x="83.300781"/>
      <use xlink:href="#ArialMT-73" x="138.916016"/>
      <use xlink:href="#ArialMT-73" x="188.916016"/>
      <use xlink:href="#ArialMT-61" x="238.916016"/>
      <use xlink:href="#ArialMT-67" x="294.53125"/>
      <use xlink:href="#ArialMT-65" x="350.146484"/>
      <use xlink:href="#ArialMT-5f" x="405.761719"/>
      <use xlink:href="#ArialMT-63" x="461.376953"/>
      <use xlink:href="#ArialMT-6f" x="511.376953"/>
      <use xlink:href="#ArialMT-75" x="566.992188"/>
      <use xlink:href="#ArialMT-6e" x="622.607422"/>
      <use xlink:href="#ArialMT-74" x="678.222656"/>
     </g>
    </g>
   </g>
   <g id="matplotlib.axis_4">
    <g id="ytick_9">
     <g id="text_29">
      <!-- January -->
      <g style="fill: #262626" transform="translate(868.325852 79.787812) scale(0.2 -0.2)">
       <defs>
        <path id="ArialMT-4a" d="M 184 1300 
L 731 1375 
Q 753 850 928 656 
Q 1103 463 1413 463 
Q 1641 463 1806 567 
Q 1972 672 2034 851 
Q 2097 1031 2097 1425 
L 2097 4581 
L 2703 4581 
L 2703 1459 
Q 2703 884 2564 568 
Q 2425 253 2123 87 
Q 1822 -78 1416 -78 
Q 813 -78 492 269 
Q 172 616 184 1300 
z
" transform="scale(0.015625)"/>
       </defs>
       <use xlink:href="#ArialMT-4a"/>
       <use xlink:href="#ArialMT-61" x="50"/>
       <use xlink:href="#ArialMT-6e" x="105.615234"/>
       <use xlink:href="#ArialMT-75" x="161.230469"/>
       <use xlink:href="#ArialMT-61" x="216.845703"/>
       <use xlink:href="#ArialMT-72" x="272.460938"/>
       <use xlink:href="#ArialMT-79" x="305.761719"/>
      </g>
     </g>
    </g>
    <g id="ytick_10">
     <g id="text_30">
      <!-- February -->
      <g style="fill: #262626" transform="translate(859.450852 121.367812) scale(0.2 -0.2)">
       <use xlink:href="#ArialMT-46"/>
       <use xlink:href="#ArialMT-65" x="61.083984"/>
       <use xlink:href="#ArialMT-62" x="116.699219"/>
       <use xlink:href="#ArialMT-72" x="172.314453"/>
       <use xlink:href="#ArialMT-75" x="205.615234"/>
       <use xlink:href="#ArialMT-61" x="261.230469"/>
       <use xlink:href="#ArialMT-72" x="316.845703"/>
       <use xlink:href="#ArialMT-79" x="350.146484"/>
      </g>
     </g>
    </g>
    <g id="ytick_11">
     <g id="text_31">
      <!-- March -->
      <g style="fill: #262626" transform="translate(883.910227 162.947812) scale(0.2 -0.2)">
       <use xlink:href="#ArialMT-4d"/>
       <use xlink:href="#ArialMT-61" x="83.300781"/>
       <use xlink:href="#ArialMT-72" x="138.916016"/>
       <use xlink:href="#ArialMT-63" x="172.216797"/>
       <use xlink:href="#ArialMT-68" x="222.216797"/>
      </g>
     </g>
    </g>
    <g id="ytick_12">
     <g id="text_32">
      <!-- April -->
      <g style="fill: #262626" transform="translate(899.463352 204.527813) scale(0.2 -0.2)">
       <defs>
        <path id="ArialMT-41" d="M -9 0 
L 1750 4581 
L 2403 4581 
L 4278 0 
L 3588 0 
L 3053 1388 
L 1138 1388 
L 634 0 
L -9 0 
z
M 1313 1881 
L 2866 1881 
L 2388 3150 
Q 2169 3728 2063 4100 
Q 1975 3659 1816 3225 
L 1313 1881 
z
" transform="scale(0.015625)"/>
       </defs>
       <use xlink:href="#ArialMT-41"/>
       <use xlink:href="#ArialMT-70" x="66.699219"/>
       <use xlink:href="#ArialMT-72" x="122.314453"/>
       <use xlink:href="#ArialMT-69" x="155.615234"/>
       <use xlink:href="#ArialMT-6c" x="177.832031"/>
      </g>
     </g>
    </g>
    <g id="ytick_13">
     <g id="text_33">
      <!-- May -->
      <g style="fill: #262626" transform="translate(901.691477 246.107813) scale(0.2 -0.2)">
       <use xlink:href="#ArialMT-4d"/>
       <use xlink:href="#ArialMT-61" x="83.300781"/>
       <use xlink:href="#ArialMT-79" x="138.916016"/>
      </g>
     </g>
    </g>
    <g id="ytick_14">
     <g id="text_34">
      <!-- June -->
      <g style="fill: #262626" transform="translate(896.107102 287.687813) scale(0.2 -0.2)">
       <use xlink:href="#ArialMT-4a"/>
       <use xlink:href="#ArialMT-75" x="50"/>
       <use xlink:href="#ArialMT-6e" x="105.615234"/>
       <use xlink:href="#ArialMT-65" x="161.230469"/>
      </g>
     </g>
    </g>
    <g id="ytick_15">
     <g id="text_35">
      <!-- July -->
      <g style="fill: #262626" transform="translate(903.907102 329.267812) scale(0.2 -0.2)">
       <use xlink:href="#ArialMT-4a"/>
       <use xlink:href="#ArialMT-75" x="50"/>
       <use xlink:href="#ArialMT-6c" x="105.615234"/>
       <use xlink:href="#ArialMT-79" x="127.832031"/>
      </g>
     </g>
    </g>
    <g id="ytick_16">
     <g id="text_36">
      <!-- August -->
      <g style="fill: #262626" transform="translate(877.210227 370.847813) scale(0.2 -0.2)">
       <use xlink:href="#ArialMT-41"/>
       <use xlink:href="#ArialMT-75" x="66.699219"/>
       <use xlink:href="#ArialMT-67" x="122.314453"/>
       <use xlink:href="#ArialMT-75" x="177.929688"/>
       <use xlink:href="#ArialMT-73" x="233.544922"/>
       <use xlink:href="#ArialMT-74" x="283.544922"/>
      </g>
     </g>
    </g>
    <g id="text_37">
     <!-- month_name -->
     <g style="fill: #262626" transform="translate(851.475852 276.524062) rotate(-90) scale(0.2 -0.2)">
      <use xlink:href="#ArialMT-6d"/>
      <use xlink:href="#ArialMT-6f" x="83.300781"/>
      <use xlink:href="#ArialMT-6e" x="138.916016"/>
      <use xlink:href="#ArialMT-74" x="194.53125"/>
      <use xlink:href="#ArialMT-68" x="222.314453"/>
      <use xlink:href="#ArialMT-5f" x="277.929688"/>
      <use xlink:href="#ArialMT-6e" x="333.544922"/>
      <use xlink:href="#ArialMT-61" x="389.160156"/>
      <use xlink:href="#ArialMT-6d" x="444.775391"/>
      <use xlink:href="#ArialMT-65" x="528.076172"/>
     </g>
    </g>
   </g>
   <g id="patch_15">
    <path d="M 946.472727 55.998 
L 1081.830585 55.998 
L 1081.830585 89.262 
L 946.472727 89.262 
z
" clip-path="url(#pf9bf8ff117)" style="fill: #e5c0c0; stroke: #ffffff; stroke-linejoin: miter"/>
   </g>
   <g id="patch_16">
    <path d="M 946.472727 97.578 
L 1526.212987 97.578 
L 1526.212987 130.842 
L 946.472727 130.842 
z
" clip-path="url(#pf9bf8ff117)" style="fill: #d8c3c7; stroke: #ffffff; stroke-linejoin: miter"/>
   </g>
   <g id="patch_17">
    <path d="M 946.472727 139.158 
L 1447.608948 139.158 
L 1447.608948 172.422 
L 946.472727 172.422 
z
" clip-path="url(#pf9bf8ff117)" style="fill: #cbc6d0; stroke: #ffffff; stroke-linejoin: miter"/>
   </g>
   <g id="patch_18">
    <path d="M 946.472727 180.738 
L 1305.440632 180.738 
L 1305.440632 214.002 
L 946.472727 214.002 
z
" clip-path="url(#pf9bf8ff117)" style="fill: #bfcbd9; stroke: #ffffff; stroke-linejoin: miter"/>
   </g>
   <g id="patch_19">
    <path d="M 946.472727 222.318 
L 1314.237474 222.318 
L 1314.237474 255.582 
L 946.472727 255.582 
z
" clip-path="url(#pf9bf8ff117)" style="fill: #aabbca; stroke: #ffffff; stroke-linejoin: miter"/>
   </g>
   <g id="patch_20">
    <path d="M 946.472727 263.898 
L 1353.397609 263.898 
L 1353.397609 297.162 
L 946.472727 297.162 
z
" clip-path="url(#pf9bf8ff117)" style="fill: #8c99a4; stroke: #ffffff; stroke-linejoin: miter"/>
   </g>
   <g id="patch_21">
    <path d="M 946.472727 305.478 
L 1231.376898 305.478 
L 1231.376898 338.742 
L 946.472727 338.742 
z
" clip-path="url(#pf9bf8ff117)" style="fill: #6e767e; stroke: #ffffff; stroke-linejoin: miter"/>
   </g>
   <g id="patch_22">
    <path d="M 946.472727 347.058 
L 1435.974415 347.058 
L 1435.974415 380.322 
L 946.472727 380.322 
z
" clip-path="url(#pf9bf8ff117)" style="fill: #505558; stroke: #ffffff; stroke-linejoin: miter"/>
   </g>
   <g id="line2d_25">
    <path clip-path="url(#pf9bf8ff117)" style="fill: none; stroke: #424242; stroke-width: 2.7; stroke-linecap: round"/>
   </g>
   <g id="line2d_26">
    <path clip-path="url(#pf9bf8ff117)" style="fill: none; stroke: #424242; stroke-width: 2.7; stroke-linecap: round"/>
   </g>
   <g id="line2d_27">
    <path clip-path="url(#pf9bf8ff117)" style="fill: none; stroke: #424242; stroke-width: 2.7; stroke-linecap: round"/>
   </g>
   <g id="line2d_28">
    <path clip-path="url(#pf9bf8ff117)" style="fill: none; stroke: #424242; stroke-width: 2.7; stroke-linecap: round"/>
   </g>
   <g id="line2d_29">
    <path clip-path="url(#pf9bf8ff117)" style="fill: none; stroke: #424242; stroke-width: 2.7; stroke-linecap: round"/>
   </g>
   <g id="line2d_30">
    <path clip-path="url(#pf9bf8ff117)" style="fill: none; stroke: #424242; stroke-width: 2.7; stroke-linecap: round"/>
   </g>
   <g id="line2d_31">
    <path clip-path="url(#pf9bf8ff117)" style="fill: none; stroke: #424242; stroke-width: 2.7; stroke-linecap: round"/>
   </g>
   <g id="line2d_32">
    <path clip-path="url(#pf9bf8ff117)" style="fill: none; stroke: #424242; stroke-width: 2.7; stroke-linecap: round"/>
   </g>
   <g id="patch_23">
    <path d="M 946.472727 384.48 
L 946.472727 51.84 
" style="fill: none; stroke: #ffffff; stroke-width: 0.8; stroke-linejoin: miter; stroke-linecap: square"/>
   </g>
   <g id="patch_24">
    <path d="M 1555.2 384.48 
L 1555.2 51.84 
" style="fill: none; stroke: #ffffff; stroke-width: 0.8; stroke-linejoin: miter; stroke-linecap: square"/>
   </g>
   <g id="patch_25">
    <path d="M 946.472727 384.48 
L 1555.2 384.48 
" style="fill: none; stroke: #ffffff; stroke-width: 0.8; stroke-linejoin: miter; stroke-linecap: square"/>
   </g>
   <g id="patch_26">
    <path d="M 946.472727 51.84 
L 1555.2 51.84 
" style="fill: none; stroke: #ffffff; stroke-width: 0.8; stroke-linejoin: miter; stroke-linecap: square"/>
   </g>
   <g id="text_38">
    <!-- Total messages sent grouped by month -->
    <g style="fill: #262626" transform="translate(1041.402614 45.84) scale(0.24 -0.24)">
     <use xlink:href="#ArialMT-54"/>
     <use xlink:href="#ArialMT-6f" x="49.958984"/>
     <use xlink:href="#ArialMT-74" x="105.574219"/>
     <use xlink:href="#ArialMT-61" x="133.357422"/>
     <use xlink:href="#ArialMT-6c" x="188.972656"/>
     <use xlink:href="#ArialMT-20" x="211.189453"/>
     <use xlink:href="#ArialMT-6d" x="238.972656"/>
     <use xlink:href="#ArialMT-65" x="322.273438"/>
     <use xlink:href="#ArialMT-73" x="377.888672"/>
     <use xlink:href="#ArialMT-73" x="427.888672"/>
     <use xlink:href="#ArialMT-61" x="477.888672"/>
     <use xlink:href="#ArialMT-67" x="533.503906"/>
     <use xlink:href="#ArialMT-65" x="589.119141"/>
     <use xlink:href="#ArialMT-73" x="644.734375"/>
     <use xlink:href="#ArialMT-20" x="694.734375"/>
     <use xlink:href="#ArialMT-73" x="722.517578"/>
     <use xlink:href="#ArialMT-65" x="772.517578"/>
     <use xlink:href="#ArialMT-6e" x="828.132812"/>
     <use xlink:href="#ArialMT-74" x="883.748047"/>
     <use xlink:href="#ArialMT-20" x="911.53125"/>
     <use xlink:href="#ArialMT-67" x="939.314453"/>
     <use xlink:href="#ArialMT-72" x="994.929688"/>
     <use xlink:href="#ArialMT-6f" x="1028.230469"/>
     <use xlink:href="#ArialMT-75" x="1083.845703"/>
     <use xlink:href="#ArialMT-70" x="1139.460938"/>
     <use xlink:href="#ArialMT-65" x="1195.076172"/>
     <use xlink:href="#ArialMT-64" x="1250.691406"/>
     <use xlink:href="#ArialMT-20" x="1306.306641"/>
     <use xlink:href="#ArialMT-62" x="1334.089844"/>
     <use xlink:href="#ArialMT-79" x="1389.705078"/>
     <use xlink:href="#ArialMT-20" x="1439.705078"/>
     <use xlink:href="#ArialMT-6d" x="1467.488281"/>
     <use xlink:href="#ArialMT-6f" x="1550.789062"/>
     <use xlink:href="#ArialMT-6e" x="1606.404297"/>
     <use xlink:href="#ArialMT-74" x="1662.019531"/>
     <use xlink:href="#ArialMT-68" x="1689.802734"/>
    </g>
   </g>
  </g>
 </g>
 <defs>
  <clipPath id="p4df3c812d3">
   <rect x="216" y="51.84" width="608.727273" height="332.64"/>
  </clipPath>
  <clipPath id="pf9bf8ff117">
   <rect x="946.472727" y="51.84" width="608.727273" height="332.64"/>
  </clipPath>
 </defs>
</svg>
